<svg xmlns="http://www.w3.org/2000/svg" viewBox="0 0 512 512" role="img" aria-labelledby="title desc">
  <title id="title">墨知 Inkwise</title>
  <desc id="desc">由展开书页、字母 W 和智慧光点组成的墨知品牌标志</desc>
  <rect width="512" height="512" rx="112" fill="#191C22"/>
  <path d="M88 132c70 0 125 18 168 70v202c-39-48-92-70-168-70V132Z" fill="#F7F7FA"/>
  <path d="M424 132c-70 0-125 18-168 70v202c39-48 92-70 168-70V132Z" fill="#E7DEFF"/>
  <path d="M137 184c43 5 78 19 105 43M137 236c43 5 78 19 105 43" fill="none" stroke="#9A80E8" stroke-width="18" stroke-linecap="round"/>
  <path d="M375 184c-43 5-78 19-105 43M375 236c-43 5-78 19-105 43" fill="none" stroke="#7657E8" stroke-width="18" stroke-linecap="round"/>
  <circle cx="256" cy="123" r="24" fill="#8A68EE"/>
  <path d="M256 73V48M256 198v-25M206 123h-25M331 123h-25M221 88l-18-18M309 176l-18-18M291 88l18-18M203 176l18-18" fill="none" stroke="#A98CF0" stroke-width="13" stroke-linecap="round"/>
</svg>
